<svg xmlns="http://www.w3.org/2000/svg" width="18" height="18" fill="none" viewBox="0 0 18 18"><path fill="#185c37" d="M11.014 8.634 4.788 7.538v8.105a.67.67 0 0 0 .67.67h10.745a.67.67 0 0 0 .672-.67v-2.987z"/><path fill="#21a366" d="M11.014 1.688H5.46a.67.67 0 0 0-.671.67v2.986L11.014 9l3.297 1.097L16.875 9V5.344z"/><path fill="#107c41" d="M4.788 5.344h6.226V9H4.788z"/><path fill="#000" d="M9.244 4.612H4.788v9.14h4.456a.675.675 0 0 0 .672-.669v-7.8a.675.675 0 0 0-.672-.67" opacity=".1"/><path fill="#000" d="M8.878 4.978h-4.09v9.14h4.09a.675.675 0 0 0 .671-.67v-7.8a.675.675 0 0 0-.671-.67" opacity=".2"/><path fill="#000" d="M8.878 4.978h-4.09v8.41h4.09a.675.675 0 0 0 .671-.67v-7.07a.675.675 0 0 0-.671-.67" opacity=".2"/><path fill="#000" d="M8.512 4.978H4.788v8.41h3.724a.675.675 0 0 0 .671-.67v-7.07a.675.675 0 0 0-.671-.67" opacity=".2"/><path fill="url(#paint0_linear_261_1265)" d="M1.797 4.978h6.715a.67.67 0 0 1 .671.67v6.704a.67.67 0 0 1-.671.67H1.797a.67.67 0 0 1-.672-.67V5.648a.67.67 0 0 1 .672-.67"/><path fill="#fff" d="M3.206 11.178 4.62 8.994 3.325 6.82h1.039l.706 1.391q.1.198.134.295h.01q.068-.158.146-.307l.754-1.376h.957l-1.327 2.16 1.36 2.196H6.087L5.27 9.655a1.4 1.4 0 0 1-.096-.205h-.013a1 1 0 0 1-.095.197l-.84 1.531z"/><path fill="#33c481" d="M16.203 1.688h-5.189v3.656h5.861V2.357a.67.67 0 0 0-.672-.67"/><path fill="#107c41" d="M11.014 9h5.861v3.656h-5.86z"/><defs><linearGradient id="paint0_linear_261_1265" x1="2.528" x2="7.78" y1="4.452" y2="13.548" gradientUnits="userSpaceOnUse"><stop stop-color="#18884f"/><stop offset=".5" stop-color="#117e43"/><stop offset="1" stop-color="#0b6631"/></linearGradient></defs></svg>
