<svg xmlns="http://www.w3.org/2000/svg" width="24" height="24" fill="none" viewBox="0 0 24 24"><path fill="#0b9624" d="M19.075 21.9 17.15 20H6q-.825 0-1.412-.587A1.93 1.93 0 0 1 4 18v-.8q0-.85.438-1.562A2.93 2.93 0 0 1 5.6 14.55q1.125-.575 2.288-.925a16.4 16.4 0 0 1 2.362-.525L2.075 4.925a.93.93 0 0 1-.287-.712Q1.8 3.802 2.1 3.5q.299-.3.713-.3t.712.3l16.975 17q.3.3.3.7t-.3.7-.712.3a.98.98 0 0 1-.713-.3M6 18h9.15l-3-3H12q-1.401 0-2.775.338A13 13 0 0 0 6.5 16.35a1 1 0 0 0-.363.35.93.93 0 0 0-.137.5zm12.4-3.45q.724.35 1.15 1.063.425.714.45 1.537l-3.35-3.35q.45.175.888.35t.862.4m-4.2-3.2-1.475-1.475q.574-.225.925-.737Q14 8.627 14 8q0-.824-.587-1.412A1.93 1.93 0 0 0 12 6a1.97 1.97 0 0 0-1.137.35 1.97 1.97 0 0 0-.738.925L8.65 5.8a4.1 4.1 0 0 1 1.45-1.325A3.9 3.9 0 0 1 12 4q1.65 0 2.825 1.175T16 8q0 1.026-.475 1.9a4.1 4.1 0 0 1-1.325 1.45"/></svg>
