<svg width="16" height="16" viewBox="0 0 16 16" fill="none" xmlns="http://www.w3.org/2000/svg">
<path d="M12.05 1.03613L14.832 3.93613V14.9641H4.43951V15.0001H14.8675V3.97263L12.05 1.03613Z" fill="#909090"/>
<path d="M12.0155 1H4.40399V14.964H14.832V3.9365L12.0155 1Z" fill="#F4F4F4"/>
<path d="M4.32751 1.75H1.13251V5.1635H11.1825V1.75H4.32751Z" fill="#7A7B7C"/>
<path d="M11.236 5.10545H1.19751V1.68945H11.236V5.10545Z" fill="#DD2025"/>
<path d="M4.526 2.26684H3.8725V4.66684H4.3865V3.85734L4.5 3.86384C4.61032 3.86232 4.71963 3.84255 4.8235 3.80534C4.91481 3.77433 4.99873 3.7248 5.07 3.65984C5.14308 3.59856 5.2005 3.52074 5.2375 3.43284C5.28812 3.28719 5.30604 3.13219 5.29 2.97884C5.28715 2.86926 5.26793 2.76073 5.233 2.65684C5.20151 2.58174 5.1547 2.51405 5.09555 2.45808C5.0364 2.40212 4.96622 2.35912 4.8895 2.33184C4.82336 2.30734 4.75481 2.28991 4.685 2.27984C4.63226 2.27125 4.57893 2.2669 4.5255 2.26684M4.431 3.41384H4.3865V2.67384H4.483C4.52559 2.67077 4.56832 2.6773 4.60805 2.69297C4.64777 2.70863 4.68347 2.73302 4.7125 2.76434C4.77266 2.84484 4.80479 2.94284 4.804 3.04334C4.804 3.16634 4.804 3.27784 4.693 3.35634C4.61305 3.40037 4.52201 3.42068 4.431 3.41384ZM6.2665 2.26034C6.211 2.26034 6.157 2.26434 6.119 2.26584L6 2.26884H5.61V4.66884H6.069C6.24439 4.67335 6.41898 4.64363 6.583 4.58134C6.71506 4.52919 6.83195 4.44478 6.923 4.33584C7.01222 4.22641 7.07593 4.09848 7.1095 3.96134C7.14893 3.8063 7.16809 3.6468 7.1665 3.48684C7.17629 3.29792 7.16166 3.10852 7.123 2.92334C7.08598 2.78718 7.01747 2.66164 6.923 2.55684C6.8489 2.47209 6.75774 2.40394 6.6555 2.35684C6.56791 2.31624 6.47574 2.28635 6.381 2.26784C6.34332 2.26166 6.30517 2.25882 6.267 2.25934M6.176 4.22784H6.126V2.69584H6.1325C6.23558 2.68392 6.33989 2.70252 6.4325 2.74934C6.50033 2.8035 6.5556 2.87174 6.5945 2.94934C6.63648 3.03101 6.66067 3.12064 6.6655 3.21234C6.67 3.32234 6.6655 3.41234 6.6655 3.48684C6.66735 3.57265 6.66183 3.65847 6.649 3.74334C6.63327 3.83037 6.60479 3.91461 6.5645 3.99334C6.51897 4.06676 6.45679 4.12842 6.383 4.17334C6.32135 4.21334 6.24827 4.23196 6.175 4.22634M8.715 2.26884H7.5V4.66884H8.014V3.71684H8.664V3.27084H8.014V2.71484H8.714V2.26884" fill="#464648"/>
<path d="M10.8905 10.1273C10.8905 10.1273 12.4845 9.83826 12.4845 10.3828C12.4845 10.9273 11.497 10.7058 10.8905 10.1273ZM9.712 10.1688C9.4587 10.2246 9.21188 10.3065 8.9755 10.4133L9.1755 9.96326C9.3755 9.51326 9.583 8.89976 9.583 8.89976C9.82106 9.30182 10.0988 9.67904 10.412 10.0258C10.1762 10.0609 9.94251 10.109 9.712 10.1698V10.1688ZM9.081 6.91876C9.081 6.44426 9.2345 6.31476 9.354 6.31476C9.4735 6.31476 9.608 6.37226 9.6125 6.78426C9.57351 7.19853 9.48677 7.60691 9.354 8.00126C9.17151 7.67039 9.07732 7.2981 9.0805 6.92026L9.081 6.91876ZM6.7565 12.1768C6.2675 11.8843 7.782 10.9838 8.0565 10.9548C8.055 10.9553 7.2685 12.4828 6.7565 12.1768ZM12.95 10.4473C12.945 10.3973 12.9 9.84376 11.915 9.86726C11.5044 9.86006 11.094 9.88901 10.6885 9.95376C10.2954 9.55813 9.9571 9.11166 9.6825 8.62626C9.8554 8.12591 9.96017 7.60456 9.994 7.07626C9.9795 6.47626 9.836 6.13226 9.376 6.13726C8.916 6.14226 8.849 6.54476 8.9095 7.14376C8.96871 7.5463 9.0805 7.93932 9.242 8.31276C9.242 8.31276 9.0295 8.97426 8.7485 9.63226C8.4675 10.2903 8.2755 10.6353 8.2755 10.6353C7.78679 10.7942 7.32677 11.0305 6.913 11.3353C6.501 11.7188 6.3335 12.0133 6.5505 12.3078C6.7375 12.5618 7.392 12.6193 7.977 11.8528C8.28729 11.4565 8.57124 11.0402 8.827 10.6068C8.827 10.6068 9.719 10.3623 9.9965 10.2953C10.274 10.2283 10.6095 10.1753 10.6095 10.1753C10.6095 10.1753 11.424 10.9948 12.2095 10.9658C12.995 10.9368 12.957 10.4963 12.952 10.4483" fill="#DD2025"/>
<path d="M11.977 1.03857V3.97507H14.7935L11.977 1.03857Z" fill="#909090"/>
<path d="M12.0155 1V3.9365H14.832L12.0155 1Z" fill="#F4F4F4"/>
<path d="M4.48751 2.22826H3.83401V4.62826H4.35001V3.81926L4.46402 3.82576C4.57434 3.82424 4.68365 3.80448 4.78751 3.76726C4.87883 3.73626 4.96275 3.68672 5.03401 3.62176C5.10655 3.56032 5.16345 3.48251 5.20001 3.39476C5.25064 3.24912 5.26856 3.09412 5.25251 2.94076C5.24966 2.83119 5.23045 2.72266 5.19551 2.61876C5.16403 2.54367 5.11722 2.47597 5.05807 2.42001C4.99892 2.36405 4.92874 2.32105 4.85202 2.29376C4.78557 2.26903 4.71668 2.25143 4.64651 2.24126C4.59378 2.23268 4.54044 2.22833 4.48701 2.22826M4.39251 3.37526H4.34801V2.63526H4.44501C4.4876 2.63219 4.53034 2.63873 4.57006 2.65439C4.60979 2.67006 4.64548 2.69445 4.67451 2.72576C4.73467 2.80627 4.76681 2.90427 4.76601 3.00476C4.76601 3.12776 4.76601 3.23926 4.65501 3.31776C4.57507 3.3618 4.48403 3.38161 4.39301 3.37476M6.22801 2.22176C6.17251 2.22176 6.11851 2.22576 6.08051 2.22726L5.96301 2.23026H5.57301V4.63026H6.03201C6.20741 4.63477 6.382 4.60505 6.54601 4.54276C6.67807 4.49061 6.79496 4.40621 6.88601 4.29726C6.97524 4.18784 7.03895 4.0599 7.07252 3.92276C7.11195 3.76773 7.13111 3.60823 7.12951 3.44826C7.1393 3.25934 7.12468 3.06995 7.08601 2.88476C7.049 2.74861 6.98049 2.62306 6.88601 2.51826C6.81191 2.43352 6.72076 2.36537 6.61852 2.31826C6.53093 2.27766 6.43876 2.24778 6.34401 2.22926C6.30634 2.22309 6.26819 2.22024 6.23001 2.22076M6.13901 4.18926H6.08902V2.65726H6.09551C6.1986 2.64534 6.30291 2.66395 6.39551 2.71076C6.46335 2.76493 6.51862 2.83316 6.55751 2.91076C6.59949 2.99243 6.62369 3.08207 6.62851 3.17376C6.63301 3.28376 6.62851 3.37376 6.62851 3.44826C6.63036 3.53408 6.62484 3.61989 6.61201 3.70476C6.59628 3.7918 6.56781 3.87603 6.52751 3.95476C6.48199 4.02819 6.41981 4.08985 6.34601 4.13476C6.28437 4.17477 6.21128 4.19339 6.13801 4.18776M8.67652 2.23026H7.46151V4.63026H7.97551V3.67826H8.62551V3.23226H7.97551V2.67626H8.67551V2.23026" fill="white"/>
</svg>
