<svg xmlns="http://www.w3.org/2000/svg" width="16" height="16" fill="none" viewBox="0 0 16 16"><path fill="#909090" d="m12.05 1.036 2.782 2.9v11.028H4.44V15h10.427V3.973z"/><path fill="#f4f4f4" d="M12.016 1H4.403v13.964h10.428V3.937z"/><path fill="#7a7b7c" d="M4.328 1.75H1.133v3.414h10.05V1.75z"/><path fill="#dd2025" d="M11.236 5.105H1.198V1.69h10.038z"/><path fill="#464648" d="M4.526 2.267h-.653v2.4h.513v-.81l.114.007a1 1 0 0 0 .324-.059.7.7 0 0 0 .246-.145.6.6 0 0 0 .167-.227q.077-.221.053-.454a1.1 1.1 0 0 0-.057-.322.6.6 0 0 0-.343-.325 1 1 0 0 0-.205-.052 1 1 0 0 0-.16-.013m-.094 1.147h-.045v-.74h.097a.28.28 0 0 1 .23.09.46.46 0 0 1 .091.28c0 .122 0 .234-.111.312a.47.47 0 0 1-.262.058M6.266 2.26c-.055 0-.109.004-.147.006L6 2.269h-.39v2.4h.459c.175.004.35-.025.514-.088a.85.85 0 0 0 .34-.245.95.95 0 0 0 .186-.375 2 2 0 0 0 .058-.474 2.2 2.2 0 0 0-.044-.564.9.9 0 0 0-.2-.366.8.8 0 0 0-.268-.2 1.2 1.2 0 0 0-.274-.09 1 1 0 0 0-.114-.008m-.091 1.969h-.05V2.696h.006a.53.53 0 0 1 .3.053.65.65 0 0 1 .233.463c.005.11 0 .2 0 .275a1.5 1.5 0 0 1-.016.256 1 1 0 0 1-.085.25.55.55 0 0 1-.181.18.34.34 0 0 1-.208.053m2.54-1.957H7.5v2.4h.514v-.952h.65V3.27h-.65v-.556h.7z"/><path fill="#dd2025" d="M10.89 10.127s1.595-.289 1.595.256-.988.323-1.594-.256m-1.178.042q-.38.084-.736.244l.2-.45c.2-.45.407-1.063.407-1.063q.358.604.829 1.126-.355.052-.7.144zm-.631-3.25c0-.475.154-.604.273-.604s.254.057.259.47A5.4 5.4 0 0 1 9.354 8a2.2 2.2 0 0 1-.273-1.08zm-2.324 5.258c-.49-.293 1.025-1.193 1.3-1.222-.002 0-.788 1.528-1.3 1.222m6.193-1.73c-.005-.05-.05-.603-1.035-.58a7 7 0 0 0-1.226.087 6.3 6.3 0 0 1-1.007-1.328 6 6 0 0 0 .312-1.55c-.014-.6-.158-.944-.618-.939s-.527.408-.466 1.007c.059.402.17.795.332 1.169 0 0-.213.661-.494 1.32a12 12 0 0 1-.473 1.002 4.8 4.8 0 0 0-1.362.7c-.412.384-.58.678-.362.973.186.254.841.311 1.426-.455q.466-.595.85-1.246s.892-.245 1.17-.312.613-.12.613-.12.814.82 1.6.79c.785-.028.747-.469.742-.517"/><path fill="#909090" d="M11.977 1.039v2.936h2.816z"/><path fill="#f4f4f4" d="M12.016 1v2.937h2.816z"/><path fill="#fff" d="M4.488 2.228h-.654v2.4h.516V3.82l.114.007a1 1 0 0 0 .324-.059.7.7 0 0 0 .246-.145.6.6 0 0 0 .166-.227c.05-.146.069-.3.053-.454a1.1 1.1 0 0 0-.057-.322.6.6 0 0 0-.344-.325 1 1 0 0 0-.205-.053 1 1 0 0 0-.16-.013m-.094 1.147h-.045v-.74h.097a.28.28 0 0 1 .23.09.46.46 0 0 1 .091.28c0 .123 0 .234-.111.313a.47.47 0 0 1-.262.057m1.835-1.153c-.055 0-.11.004-.147.005l-.118.003h-.39v2.4h.459c.175.005.35-.025.514-.087a.85.85 0 0 0 .34-.246.95.95 0 0 0 .187-.374 2 2 0 0 0 .057-.475 2.2 2.2 0 0 0-.044-.563.9.9 0 0 0-.2-.367.8.8 0 0 0-.267-.2 1.2 1.2 0 0 0-.275-.089 1 1 0 0 0-.114-.008M6.139 4.19h-.05V2.657h.007a.53.53 0 0 1 .3.054.65.65 0 0 1 .233.463c.004.11 0 .2 0 .274a1.5 1.5 0 0 1-.017.257 1 1 0 0 1-.084.25.55.55 0 0 1-.182.18.34.34 0 0 1-.208.053M8.677 2.23H7.462v2.4h.514v-.952h.65v-.446h-.65v-.556h.7V2.23"/></svg>
