<svg xmlns="http://www.w3.org/2000/svg" width="10" height="10" fill="none" viewBox="0 0 10 10"><path fill="#2e2e2e" d="M4.955 4.955a1.6 1.6 0 0 1-1.167-.485 1.6 1.6 0 0 1-.485-1.166q0-.683.485-1.167a1.6 1.6 0 0 1 1.167-.485q.681 0 1.166.485t.485 1.167-.485 1.166a1.6 1.6 0 0 1-1.166.485M1.65 7.433v-.33q0-.352.181-.646.18-.293.48-.449.64-.32 1.3-.48a5.7 5.7 0 0 1 2.685 0q.66.16 1.3.48.3.155.48.45.181.293.181.644v.33q0 .341-.242.584a.8.8 0 0 1-.584.243H2.477a.8.8 0 0 1-.583-.243.8.8 0 0 1-.243-.583"/></svg>
