<svg xmlns="http://www.w3.org/2000/svg" width="24" height="24" fill="none" viewBox="0 0 24 24"><path fill="#0b9624" d="M12 12q-1.65 0-2.825-1.175T8 8t1.175-2.825T12 4t2.825 1.175T16 8t-1.175 2.825T12 12m-8 6v-.8q0-.85.438-1.562A2.93 2.93 0 0 1 5.6 14.55a14.8 14.8 0 0 1 3.15-1.162 13.8 13.8 0 0 1 6.5 0q1.6.39 3.15 1.162.725.375 1.163 1.088T20 17.2v.8q0 .825-.587 1.413A1.92 1.92 0 0 1 18 20H6q-.824 0-1.412-.587A1.93 1.93 0 0 1 4 18m2 0h12v-.8a.97.97 0 0 0-.5-.85q-1.35-.675-2.725-1.012A11.7 11.7 0 0 0 12 15q-1.4 0-2.775.338-1.375.339-2.725 1.012a1 1 0 0 0-.363.35.93.93 0 0 0-.137.5zm6-8q.825 0 1.413-.587A1.92 1.92 0 0 0 14 8q0-.825-.587-1.412A1.93 1.93 0 0 0 12 6a1.9 1.9 0 0 0-1.412.588Q10.003 7.178 10 8a1.92 1.92 0 0 0 .588 1.413q.591.591 1.412.587"/></svg>
